<?xml version="1.0" standalone="no"?>
<!DOCTYPE svg PUBLIC "-//W3C//DTD SVG 20010904//EN"
 "http://www.w3.org/TR/2001/REC-SVG-20010904/DTD/svg10.dtd">
<svg version="1.0" xmlns="http://www.w3.org/2000/svg"
 width="10" height="10" viewBox="0 0 512.000000 512.000000"
 preserveAspectRatio="xMidYMid meet">
<metadata>
Created by potrace 1.16, written by Peter Selinger 2001-2019
</metadata>
<g transform="translate(0.000000,512.000000) scale(0.100000,-0.100000)"
fill="#fff" stroke="none">
<path d="M2425 5106 c-215 -68 -353 -264 -343 -484 l3 -63 -104 -40 c-220 -83
-407 -205 -581 -379 -244 -244 -387 -518 -458 -875 -12 -65 -16 -190 -21 -670
-6 -554 -7 -592 -25 -625 -10 -19 -105 -123 -211 -230 -213 -218 -250 -272
-281 -420 -62 -294 126 -598 416 -675 45 -12 148 -15 543 -15 l487 0 0 -23 c0
-84 75 -253 156 -351 138 -168 330 -256 554 -256 224 0 416 88 554 256 81 98
156 267 156 351 l0 23 488 0 c394 0 497 3 542 15 210 56 370 229 414 447 20
95 20 143 1 233 -30 142 -68 199 -280 415 -106 107 -201 211 -211 230 -18 33
-19 71 -25 625 -6 614 -7 634 -53 813 -130 499 -517 927 -1008 1112 l-103 39
3 63 c7 125 -46 268 -131 356 -48 49 -125 98 -195 121 -71 24 -221 28 -287 7z
m209 -371 c28 -26 46 -64 46 -96 0 -18 -8 -19 -120 -19 -133 0 -133 0 -109 69
24 68 130 95 183 46z m146 -492 c103 -17 261 -68 350 -113 296 -150 542 -434
644 -745 59 -183 58 -172 65 -825 6 -544 9 -611 25 -660 40 -121 73 -167 272
-370 194 -199 217 -228 229 -292 17 -88 -55 -209 -141 -239 -58 -21 -3270 -21
-3328 0 -86 30 -158 151 -141 239 12 64 35 93 229 292 199 203 232 249 272
370 16 49 19 116 25 660 7 653 6 642 65 825 102 310 348 596 643 745 237 119
518 159 791 113z m115 -3654 c-32 -91 -116 -173 -213 -210 -81 -30 -206 -24
-277 14 -87 46 -151 116 -179 195 l-15 42 349 0 349 0 -14 -41z"/>
</g>
</svg>
