<svg version="1.0" xmlns="http://www.w3.org/2000/svg"
 width="512.000000pt" height="512.000000pt" viewBox="0 0 512.000000 512.000000"
 preserveAspectRatio="xMidYMid meet">
<g transform="translate(0.000000,512.000000) scale(0.100000,-0.100000)" stroke="none">
<path d="M895 4253 c-90 -33 -159 -99 -185 -179 -11 -32 -14 -34 -60 -34 -91
0 -68 75 -296 -989 -121 -568 -201 -963 -198 -977 14 -54 93 -73 132 -31 16
17 39 106 106 417 48 226 83 367 80 330 -10 -130 -94 -1436 -94 -1459 0 -23
-1 -23 -72 -16 -108 10 -142 19 -146 37 -2 10 15 103 38 209 35 161 40 196 30
219 -22 54 -104 64 -134 17 -20 -30 -96 -387 -96 -450 0 -69 35 -128 92 -155
27 -12 98 -26 187 -37 l143 -18 241 -141 241 -141 1716 -3 c1893 -3 1769 -7
1824 59 37 44 47 92 39 197 l-6 92 234 0 c129 0 252 5 273 10 83 19 136 84
136 167 0 40 -85 361 -329 1247 -325 1175 -330 1193 -316 1232 8 21 14 71 15
109 1 252 -291 395 -492 242 l-43 -33 -25 23 c-52 49 -109 68 -200 68 -72 0
-92 -4 -135 -27 -27 -14 -58 -35 -68 -46 -19 -21 -19 -21 -63 13 -50 39 -127
65 -189 65 -62 0 -139 -26 -189 -65 -44 -34 -44 -34 -63 -13 -10 11 -40 32
-68 46 -43 23 -63 27 -135 27 -91 0 -148 -19 -200 -68 l-25 -23 -43 33 c-113
86 -279 81 -389 -11 l-30 -26 -19 21 c-31 35 -114 71 -175 76 -75 7 -149 -12
-210 -53 l-49 -34 -49 34 c-61 41 -135 60 -210 53 -61 -5 -144 -41 -175 -76
l-19 -21 -30 26 c-82 69 -203 92 -302 57z m189 -402 c-21 -19 -48 -31 -78 -35
-59 -9 -86 -35 -86 -81 0 -54 28 -75 98 -75 106 0 218 76 259 175 l18 45 139
0 c124 0 137 -2 125 -16 -18 -22 -58 -41 -106 -49 -74 -12 -104 -75 -62 -129
17 -22 28 -26 73 -26 111 0 218 68 266 169 l23 51 134 0 c74 0 133 -4 133 -9
0 -16 -63 -49 -109 -56 -55 -9 -81 -35 -81 -80 0 -54 28 -75 98 -75 109 0 217
73 259 177 l18 43 140 0 140 -1 -28 -24 c-26 -23 -83 -45 -118 -45 -47 0 -70
-90 -33 -131 17 -19 27 -21 89 -17 39 3 85 13 104 22 54 29 115 91 141 145
l23 51 140 0 c125 0 138 -2 126 -16 -19 -23 -58 -41 -107 -49 -52 -8 -82 -38
-82 -80 0 -81 103 -102 218 -44 66 33 110 78 142 146 l20 43 137 0 136 0 -23
-25 c-14 -15 -43 -29 -79 -36 -31 -7 -64 -19 -73 -27 -23 -20 -24 -89 -1 -114
25 -27 123 -25 188 6 58 27 138 110 155 161 l12 35 140 0 c126 0 139 -2 127
-16 -18 -22 -58 -41 -106 -49 -75 -12 -104 -75 -61 -130 20 -25 25 -27 87 -23
113 6 207 71 253 174 l19 44 119 0 c126 0 151 -9 112 -40 -12 -10 -42 -21 -67
-25 -58 -8 -85 -34 -85 -80 0 -53 28 -75 95 -75 31 0 71 6 90 14 l35 15 11
-42 c6 -23 24 -89 40 -146 16 -58 29 -108 29 -113 0 -4 -795 -7 -1767 -6
l-1768 3 -61 221 c-34 122 -64 233 -68 248 l-6 26 187 0 188 -1 -31 -28z
m3385 -668 c6 -21 119 -432 252 -914 133 -482 239 -884 236 -893 -6 -14 -59
-16 -536 -16 l-530 0 -20 -26 c-33 -42 -25 -86 22 -126 1 -1 97 -4 212 -7
l210 -6 7 -84 c4 -47 5 -88 2 -93 -3 -4 -763 -8 -1690 -8 -1339 0 -1685 3
-1689 13 -5 16 -165 2070 -162 2074 2 1 56 -190 121 -425 99 -359 121 -431
142 -449 30 -27 61 -29 92 -7 50 35 50 35 -84 521 -69 250 -128 461 -131 469
-4 12 253 14 1765 14 l1771 0 10 -37z m-3758 -1236 c34 -444 59 -810 56 -813
-3 -4 -56 22 -116 57 -102 59 -111 66 -111 94 -2 80 96 1504 102 1488 3 -10
34 -382 69 -826z"/>
<path d="M1374 3001 c-50 -31 -77 -77 -82 -141 -4 -49 6 -86 68 -280 40 -123
81 -236 93 -252 44 -59 83 -68 292 -68 171 0 193 2 232 21 58 28 93 87 93 156
0 58 -128 472 -158 513 -10 14 -34 35 -52 48 -32 21 -42 22 -244 22 -190 0
-214 -2 -242 -19z m398 -143 c19 -16 142 -403 134 -423 -4 -12 -34 -15 -165
-15 l-160 0 -65 204 c-36 112 -66 211 -66 219 0 23 14 25 166 26 98 1 145 -3
156 -11z"/>
<path d="M2181 2964 c-27 -35 -27 -66 2 -100 20 -23 33 -27 94 -31 89 -7 138
2 163 29 27 30 26 79 -3 106 -21 20 -34 22 -129 22 -103 0 -107 -1 -127 -26z"/>
<path d="M2651 2964 c-12 -15 -21 -39 -21 -53 0 -61 69 -89 193 -78 50 5 66
10 84 32 29 33 29 64 2 99 -20 25 -24 26 -129 26 -105 0 -109 -1 -129 -26z"/>
<path d="M3120 2970 c-26 -26 -27 -83 -1 -109 26 -26 77 -35 163 -29 83 6 112
27 112 82 0 65 -22 76 -146 76 -95 0 -110 -2 -128 -20z"/>
<path d="M3590 2970 c-26 -26 -27 -83 -1 -109 26 -26 77 -35 162 -29 87 7 109
24 109 83 0 66 -17 75 -143 75 -94 0 -109 -2 -127 -20z"/>
<path d="M4056 2971 c-25 -27 -23 -88 2 -113 15 -15 38 -22 90 -26 128 -9 182
16 182 83 0 63 -23 75 -148 75 -95 0 -111 -2 -126 -19z"/>
<path d="M2314 2580 c-28 -11 -54 -48 -54 -76 0 -12 9 -33 21 -48 20 -25 24
-26 129 -26 105 0 109 1 129 26 37 47 22 103 -33 124 -33 12 -162 12 -192 0z"/>
<path d="M2774 2576 c-50 -22 -61 -87 -21 -124 21 -20 34 -22 129 -22 103 0
107 1 127 26 28 35 26 67 -3 101 -23 26 -30 28 -113 31 -59 1 -98 -2 -119 -12z"/>
<path d="M3244 2576 c-48 -22 -61 -89 -24 -126 18 -18 33 -20 128 -20 124 0
146 11 146 76 0 60 -29 79 -132 82 -58 1 -97 -2 -118 -12z"/>
<path d="M3723 2584 c-51 -11 -71 -96 -33 -134 17 -17 33 -20 125 -20 123 0
145 12 145 78 0 61 -24 75 -128 78 -48 1 -97 0 -109 -2z"/>
<path d="M4194 2584 c-54 -12 -76 -93 -38 -135 15 -17 31 -19 126 -19 95 0
110 2 128 20 25 25 26 80 1 111 -16 20 -28 23 -107 25 -49 1 -99 0 -110 -2z"/>
<path d="M2404 2168 c-23 -11 -44 -48 -44 -77 0 -10 9 -30 21 -45 20 -25 24
-26 129 -26 105 0 109 1 129 26 35 45 26 95 -20 119 -33 17 -182 19 -215 3z"/>
<path d="M2873 2170 c-47 -19 -58 -92 -20 -128 21 -20 34 -22 129 -22 103 0
107 1 127 26 34 43 21 102 -26 123 -28 13 -178 14 -210 1z"/>
<path d="M3343 2170 c-45 -18 -58 -90 -23 -128 19 -20 31 -22 124 -22 87 0
108 3 127 19 34 27 32 86 -5 117 -24 21 -37 24 -114 23 -48 0 -97 -4 -109 -9z"/> <path d="M3820 2173 c-53 -21 -69 -94 -30 -133 17 -17 33 -20 125 -20 123 0
145 12 145 78 0 62 -24 77 -134 79 -50 1 -98 0 -106 -4z"/>
<path d="M4265 2157 c-38 -32 -41 -90 -6 -118 19 -16 40 -19 127 -19 93 0 105
2 124 22 25 28 26 78 1 109 -17 22 -28 24 -119 27 -93 4 -100 2 -127 -21z"/>
<path d="M1680 2087 c-13 -7 -31 -24 -39 -38 -13 -24 -11 -41 37 -215 42 -152
57 -193 78 -211 51 -46 124 -13 124 55 0 48 -93 379 -111 397 -21 21 -61 27
-89 12z"/>
<path d="M1160 2007 c-13 -7 -31 -24 -39 -39 -14 -24 -10 -45 69 -330 45 -166
92 -320 102 -340 10 -21 37 -50 60 -65 l42 -28 1075 -3 c592 -2 1091 0 1109 3
70 13 97 88 49 133 l-23 22 -1075 0 c-591 0 -1080 4 -1087 8 -6 5 -46 132 -87
283 -100 362 -91 338 -131 355 -40 17 -33 17 -64 1z"/>
<path d="M1973 1918 c-45 -22 -48 -56 -14 -175 33 -117 52 -143 103 -143 35 0
78 39 78 72 0 13 -11 66 -26 118 -34 127 -72 161 -141 128z"/>
<path d="M2473 1760 c-47 -20 -57 -87 -18 -125 22 -23 31 -25 125 -25 95 0
102 1 127 26 21 21 24 32 20 62 -10 59 -25 67 -135 69 -53 2 -107 -2 -119 -7z"/>
<path d="M2925 1745 c-33 -32 -34 -83 -2 -113 21 -20 34 -22 123 -22 72 0 105
4 121 15 44 31 37 111 -13 134 -14 6 -65 11 -115 11 -82 0 -92 -2 -114 -25z"/>
<path d="M3396 1749 c-35 -27 -36 -86 -3 -117 21 -20 34 -22 125 -22 89 0 105
3 122 20 33 33 30 85 -6 118 -22 19 -36 22 -118 22 -79 0 -97 -3 -120 -21z"/>
<path d="M3866 1749 c-33 -26 -37 -88 -6 -119 17 -17 33 -20 123 -20 90 0 106
3 125 20 33 31 30 92 -4 119 -23 18 -41 21 -119 21 -78 0 -96 -3 -119 -21z"/>
<path d="M4343 1758 c-28 -13 -46 -58 -37 -92 11 -46 38 -56 149 -56 93 0 103
2 123 23 30 32 29 81 -3 112 -22 23 -31 25 -117 24 -51 0 -103 -5 -115 -11z"/>
</g>
</svg>
