<svg version="1.0" xmlns="http://www.w3.org/2000/svg"  width="512.000000pt" height="512.000000pt" viewBox="0 0 512.000000 512.000000"  preserveAspectRatio="xMidYMid meet">
<g transform="translate(0.000000,512.000000) scale(0.100000,-0.100000)" stroke="none">
<path d="M3165 5101 c-362 -67 -649 -216 -900 -466 -273 -273 -430 -590 -480 -972 -42 -320 16 -676 153 -950 l41 -80 -235 -234 -234 -234 -108 108 -107 107 -566 -568 c-312 -312 -580 -587 -596 -612 -95 -143 -133 -267 -133 -440 0 -142 22 -237 80 -349 80 -154 187 -259 345 -337 124 -61 207 -77 370 -71 166 6 269 39 405 130 25 16 300 284 612 596 l568 566 -107 107 -108 108 234 234 234 235 80 -41 c94 -47 280 -110 389 -132 409 -83 842 -14 1192 192 194 115 391 294 519 472 79 112 185 319 226 445 63 192 76 277 76 530 0 204 -3 243 -23 339 -142 663 -641 1164 -1303 1307 -148 32 -478 37 -624 10z m507 -310 c804 -138 1308 -942 1083 -1726 -37 -131 -131 -316 -220 -433 -260 -346 -656 -545 -1085 -544 -160 0 -284 19 -427 67 -415 139 -729 453 -868 868 -49 147
-66 258 -66 427 -1 371 134 694 401 960 313 314 750 454 1182 381z m-1407 -2531 l100 -100 -213 -213 -212 -212 -102 103 -103 102 210 210 c115 115 212 210 215 210 3 0 50 -45 105 -100z m-645 -645 l315 -315 -450 -450 c-360 -360 -461 -456 -508 -481 -187 -100 -385 -71 -532 76 -136 136 -172 324 -94 498 31 69 52 91 488 530 251 251 458 457 461 457 3 0 147 -142 320 -315z"/> <path d="M2860 4080 l0 -160 615 0 615 0 0 160 0 160 -615 0 -615 0 0 -160z"/> <path d="M2860 3475 l0 -155 615 0 615 0 0 155 0 155 -615 0 -615 0 0 -155z"/> <path d="M2860 2865 l0 -155 385 0 385 0 0 155 0 155 -385 0 -385 0 0 -155z"/> </g>
</svg>
