<?xml version="1.0" standalone="no"?>
<!DOCTYPE svg PUBLIC "-//W3C//DTD SVG 20010904//EN"
 "http://www.w3.org/TR/2001/REC-SVG-20010904/DTD/svg10.dtd">
<svg version="1.0" xmlns="http://www.w3.org/2000/svg"
 width="512.000000pt" height="512.000000pt" viewBox="0 0 512.000000 512.000000"
 preserveAspectRatio="xMidYMid meet">
<metadata>
Created by potrace 1.16, written by Peter Selinger 2001-2019
</metadata>
<g transform="translate(0.000000,512.000000) scale(0.100000,-0.100000)"
fill="#fff" stroke="none">
<path d="M34 5086 l-34 -34 0 -865 0 -865 30 -31 c38 -37 80 -44 237 -40 94 3
125 8 147 22 57 38 56 29 56 732 l0 645 645 0 c703 0 694 -1 732 56 14 22 19
53 22 147 4 157 -3 199 -40 237 l-31 30 -865 0 -865 0 -34 -34z"/>
<path d="M3291 5090 c-37 -38 -44 -80 -40 -237 3 -94 8 -125 22 -147 38 -57
29 -56 732 -56 l645 0 0 -645 c0 -703 -1 -694 56 -732 22 -14 53 -19 147 -22
157 -4 199 3 237 40 l30 31 0 865 0 865 -34 34 -34 34 -865 0 -865 0 -31 -30z"/>
<path d="M83 1863 c-13 -2 -36 -18 -53 -34 l-30 -31 0 -865 0 -865 34 -34 34
-34 865 0 865 0 31 30 c37 38 44 80 40 237 -3 94 -8 125 -22 147 -38 57 -29
56 -732 56 l-645 0 0 645 c0 703 1 694 -56 732 -23 15 -51 18 -169 20 -77 0
-150 -1 -162 -4z"/>
<path d="M4731 1857 c-19 -7 -44 -25 -55 -40 -21 -28 -21 -36 -24 -688 l-2
-659 -646 0 c-702 0 -693 1 -731 -56 -14 -22 -19 -53 -22 -147 -4 -157 3 -199
40 -237 l31 -30 865 0 865 0 34 34 34 34 0 865 0 865 -29 30 c-17 16 -44 32
-62 36 -53 10 -262 6 -298 -7z"/>
</g>
</svg>
