<?xml version="1.0" standalone="no"?>
<!DOCTYPE svg PUBLIC "-//W3C//DTD SVG 20010904//EN"
 "http://www.w3.org/TR/2001/REC-SVG-20010904/DTD/svg10.dtd">
<svg version="1.0" xmlns="http://www.w3.org/2000/svg"
 width="512.000000pt" height="512.000000pt" viewBox="0 0 512.000000 512.000000"
 preserveAspectRatio="xMidYMid meet">
<metadata>
Created by potrace 1.16, written by Peter Selinger 2001-2019
</metadata>
<g transform="translate(0.000000,512.000000) scale(0.100000,-0.100000)"
fill="rgb(109, 112, 128)" stroke="none">
<path d="M991 5110 c-88 -38 -120 -97 -128 -235 -9 -151 26 -312 96 -441 16
-30 26 -56 23 -58 -4 -2 -32 -11 -62 -21 -321 -103 -548 -390 -629 -793 -51
-251 -53 -715 -6 -1066 l15 -110 -24 -25 c-35 -37 -113 -173 -152 -264 -42
-98 -78 -216 -101 -332 -22 -115 -25 -500 -5 -615 37 -204 116 -445 193 -590
141 -262 380 -449 680 -531 80 -22 103 -23 504 -27 452 -4 519 1 660 45 149
47 269 119 390 234 l72 69 119 -6 c232 -13 576 23 824 86 336 85 605 213 890
423 210 155 408 403 550 689 162 328 231 674 216 1093 -16 485 -116 937 -299
1360 l-34 81 56 16 c70 21 132 65 168 120 28 41 28 43 28 207 0 165 0 166 -30
220 -36 65 -85 107 -147 126 -68 20 -1136 2 -1217 -21 -75 -21 -154 -100 -175
-175 -15 -53 -36 -321 -36 -452 0 -160 103 -287 232 -287 26 0 88 9 138 21 50
12 94 19 97 16 8 -9 -24 -100 -80 -225 -224 -508 -566 -914 -1026 -1219 -149
-99 -158 -103 -182 -72 -10 13 -19 26 -19 29 0 3 20 30 45 60 238 288 317 606
226 906 l-18 61 61 6 c86 9 169 32 253 72 132 62 249 156 272 218 17 45 13
117 -10 163 -42 87 -231 221 -392 277 -16 6 -16 10 6 54 49 97 43 174 -19 242
-83 93 -344 144 -549 108 -49 -9 -91 -14 -93 -12 -2 2 20 48 48 102 42 80 51
104 46 132 -11 69 -74 104 -140 77 -30 -13 -42 -29 -89 -121 l-53 -107 -27 69
c-54 138 -171 283 -298 369 -62 42 -77 49 -132 52 -87 5 -137 -23 -186 -103
l-36 -60 -82 51 c-137 86 -360 145 -432 114z m174 -217 c68 -21 171 -76 220
-117 l40 -34 0 -158 c1 -102 5 -169 13 -188 11 -26 11 -28 -5 -21 -10 4 -58
12 -107 18 -85 11 -91 13 -128 52 -78 80 -137 246 -138 382 0 99 -2 98 105 66z
m601 -22 c98 -72 179 -186 214 -300 37 -119 18 -286 -47 -415 l-29 -56 -66 54
c-219 181 -274 433 -151 694 13 28 28 52 32 52 5 0 26 -13 47 -29z m3030 -309
c25 -16 34 -56 34 -147 l0 -96 -42 -19 c-24 -10 -283 -73 -577 -140 l-534
-121 -21 20 c-19 20 -19 25 -8 226 7 113 16 215 22 225 6 11 20 25 31 31 14 7
162 13 428 18 594 11 655 11 667 3z m-2003 -231 c37 -12 67 -26 67 -30 0 -20
-101 -160 -143 -198 -62 -58 -148 -111 -205 -129 -86 -27 -206 -29 -305 -5
-127 30 -123 26 -79 101 48 82 141 177 217 221 53 31 85 43 170 63 47 11 212
-3 278 -23z m-1368 -165 c91 -31 158 -68 230 -126 198 -160 288 -210 472 -261
245 -68 397 -186 497 -386 107 -214 95 -448 -34 -662 -47 -79 -139 -201 -151
-201 -3 0 -45 25 -93 56 -67 44 -85 60 -80 73 32 72 -4 136 -76 136 -34 0 -47
-6 -66 -28 -13 -16 -24 -39 -24 -51 0 -23 -2 -23 -47 -13 -77 16 -337 12 -422
-6 -41 -9 -75 -16 -76 -14 -1 1 -7 33 -13 70 -15 92 -60 186 -123 252 -65 69
-126 105 -177 105 -107 0 -148 -140 -59 -201 86 -59 122 -108 136 -185 9 -46
9 -46 -18 -40 -14 3 -64 10 -111 16 -47 7 -100 14 -117 16 -18 3 -33 11 -33
18 0 18 -41 53 -70 61 -42 10 -80 -11 -97 -54 -14 -36 -19 -39 -65 -45 -68 -9
-202 -59 -268 -101 -38 -24 -57 -30 -61 -22 -11 19 -29 305 -29 450 0 147 15
370 31 462 17 102 57 219 111 327 43 87 65 117 137 189 144 144 294 202 506
195 86 -3 127 -9 190 -30z m3189 -233 c140 -360 225 -672 273 -1008 21 -147
23 -523 4 -665 -32 -242 -94 -446 -197 -655 -84 -169 -173 -294 -309 -431
-316 -318 -695 -503 -1196 -584 -134 -21 -350 -40 -466 -40 l-73 0 35 63 c75
137 139 341 170 543 l17 109 62 41 c183 122 466 383 610 564 377 475 590 1017
637 1620 11 142 7 357 -7 421 l-6 25 199 46 c109 25 200 46 203 47 3 1 23 -43
44 -96z m-1650 17 c74 -25 151 -69 221 -127 l56 -45 -43 -34 c-66 -52 -149
-92 -234 -114 -75 -19 -178 -25 -219 -12 -11 4 -53 41 -93 83 l-73 77 83 40
c46 22 112 65 148 96 36 30 72 55 81 55 9 1 42 -8 73 -19z m991 -626 c-86
-592 -368 -1144 -796 -1559 -63 -61 -150 -139 -193 -173 -88 -70 -96 -70 -96
10 0 85 -39 276 -80 395 -23 65 -42 124 -43 131 -1 8 43 42 98 77 446 281 816
675 1065 1132 30 56 56 100 58 98 1 -1 -4 -51 -13 -111z m-2740 -838 c100 -21
102 -22 108 -69 11 -84 99 -123 174 -77 29 17 53 65 53 107 0 14 75 38 169 54
79 14 244 6 326 -16 100 -27 234 -98 302 -160 145 -131 252 -351 300 -615 24
-131 23 -408 -1 -545 -38 -209 -122 -436 -212 -571 -122 -185 -329 -324 -546
-368 -109 -23 -792 -23 -897 -1 -224 47 -430 185 -555 373 -57 86 -146 304
-180 443 -39 159 -49 265 -43 444 6 179 26 287 83 454 58 171 106 253 209 357
78 79 104 98 185 137 52 25 120 50 150 56 30 6 64 13 75 15 36 9 229 -3 300
-18z"/>
<path d="M1275 3845 c-17 -16 -25 -35 -25 -59 0 -48 8 -65 41 -81 40 -21 63
-19 98 11 25 21 31 33 31 65 0 80 -90 120 -145 64z"/>
<path d="M760 3533 c-92 -34 -73 -173 23 -173 52 0 87 32 87 81 0 53 -13 74
-51 88 -35 12 -37 12 -59 4z"/>
<path d="M2115 3428 c-31 -17 -45 -39 -45 -74 0 -46 9 -63 41 -79 40 -21 74
-18 106 9 39 34 39 98 0 132 -30 26 -69 30 -102 12z"/>
<path d="M1425 3147 c-48 -41 -29 -138 30 -153 58 -14 115 26 115 82 0 46 -9
63 -41 79 -40 21 -74 19 -104 -8z"/>
<path d="M4439 2623 c-52 -8 -78 -51 -95 -154 -76 -471 -325 -863 -717 -1127
-94 -64 -102 -75 -102 -134 0 -43 4 -53 33 -79 62 -56 120 -37 298 97 348 260
609 681 693 1117 36 186 27 243 -45 273 -18 8 -35 13 -36 13 -2 -1 -15 -4 -29
-6z"/>
<path d="M2260 1383 c-27 -25 -32 -37 -40 -113 -12 -109 -41 -212 -86 -306
-39 -83 -135 -215 -191 -264 -46 -40 -62 -66 -63 -103 0 -62 46 -107 110 -107
61 0 202 146 293 303 89 154 147 345 147 490 0 62 -3 71 -29 98 -40 40 -98 41
-141 2z"/>
</g>
</svg>
