<?xml version="1.0" standalone="no"?>
<!DOCTYPE svg PUBLIC "-//W3C//DTD SVG 20010904//EN"
 "http://www.w3.org/TR/2001/REC-SVG-20010904/DTD/svg10.dtd">
<svg version="1.0" xmlns="http://www.w3.org/2000/svg"
 width="512.000000pt" height="512.000000pt" viewBox="0 0 512.000000 512.000000"
 preserveAspectRatio="xMidYMid meet">
<metadata>
Created by potrace 1.16, written by Peter Selinger 2001-2019
</metadata>
<g transform="translate(0.000000,512.000000) scale(0.100000,-0.100000)"
fill="rgb(109, 112, 128)" stroke="none">
<path d="M1594 5107 c-257 -85 -473 -401 -564 -827 -31 -144 -39 -414 -16
-515 48 -208 162 -371 342 -490 89 -59 127 -104 142 -170 5 -22 5 -107 1 -190
-14 -270 -12 -332 11 -355 27 -27 90 -27 116 1 16 18 20 50 31 262 13 266 8
328 -33 409 -35 70 -79 115 -171 175 -104 69 -182 153 -227 245 -51 105 -66
174 -66 309 0 418 205 865 448 977 69 31 162 28 235 -7 176 -85 338 -360 407
-686 30 -142 37 -358 16 -450 -38 -160 -132 -291 -279 -388 -98 -65 -137 -105
-171 -173 -50 -101 -51 -48 18 -1531 46 -981 62 -1392 55 -1417 -21 -75 -91
-126 -174 -126 -54 0 -93 18 -128 59 -51 61 -51 29 -2 1066 25 532 45 990 45
1016 0 65 -25 91 -82 87 -79 -6 -71 70 -123 -1067 -26 -558 -44 -1030 -40
-1050 17 -95 90 -192 180 -239 45 -24 61 -27 155 -27 90 0 111 3 147 23 95 50
153 123 178 220 14 53 10 166 -49 1439 -42 889 -61 1394 -56 1419 14 62 60
115 150 175 176 116 293 287 335 487 30 141 15 389 -35 590 -63 250 -165 445
-305 589 -75 76 -105 99 -170 130 -74 35 -88 38 -180 40 -63 2 -115 -2 -141
-10z"/>
<path d="M2905 5104 c-43 -22 -64 -44 -86 -86 -17 -32 -23 -106 -49 -609 -34
-634 -33 -658 21 -799 52 -137 146 -250 276 -333 82 -52 126 -103 143 -161 9
-34 5 -192 -24 -812 -20 -423 -36 -799 -36 -835 0 -77 19 -103 76 -103 49 0
76 30 81 91 14 178 74 1600 69 1648 -7 73 -50 165 -103 219 -21 22 -69 59
-107 83 -98 64 -159 130 -206 226 -63 129 -63 138 -30 759 15 301 31 552 35
558 11 18 53 11 60 -10 3 -11 1 -227 -5 -480 -13 -496 -12 -502 38 -562 99
-117 290 -73 331 77 7 26 11 193 11 481 0 243 3 456 6 473 5 22 12 31 23 29
14 -3 17 -29 22 -183 4 -99 7 -317 8 -485 1 -273 3 -309 20 -345 22 -48 54
-79 103 -100 103 -42 228 17 257 121 6 22 6 173 0 427 -6 216 -9 430 -7 477 3
83 4 85 29 88 14 2 31 -3 37 -10 11 -14 62 -900 62 -1073 -1 -108 -11 -159
-51 -242 -40 -83 -116 -164 -216 -230 -140 -92 -194 -179 -201 -323 -2 -47 24
-684 58 -1417 34 -733 59 -1348 56 -1368 -8 -40 -55 -99 -97 -121 -74 -38
-184 -2 -227 74 -27 49 -28 64 -6 550 l17 372 -23 25 c-32 34 -82 34 -115 0
-20 -19 -25 -35 -25 -72 0 -26 -7 -178 -15 -338 -8 -159 -15 -344 -15 -410 0
-112 2 -124 29 -182 35 -74 90 -131 157 -164 42 -21 63 -24 149 -24 85 0 107
4 147 24 110 54 180 161 186 286 2 39 -24 657 -58 1375 -34 718 -60 1334 -58
1370 5 97 38 147 141 214 109 70 204 173 256 279 53 107 71 188 71 320 0 170
-49 1068 -60 1110 -14 47 -64 106 -107 123 -18 8 -59 14 -91 14 -78 0 -139
-38 -172 -105 l-23 -47 7 -401 c3 -221 9 -433 12 -472 4 -54 2 -75 -10 -90
-12 -16 -18 -18 -33 -9 -17 10 -18 44 -25 500 -8 485 -8 489 -31 534 -34 66
-83 92 -168 88 -78 -4 -124 -32 -155 -95 -18 -35 -19 -73 -24 -525 -5 -511 -7
-528 -48 -502 -16 10 -17 37 -12 340 3 181 5 404 5 495 0 164 0 166 -28 207
-15 23 -45 51 -67 62 -48 25 -142 27 -185 4z"/>
</g>
</svg>
