<?xml version="1.0" standalone="no"?>
<!DOCTYPE svg PUBLIC "-//W3C//DTD SVG 20010904//EN"
 "http://www.w3.org/TR/2001/REC-SVG-20010904/DTD/svg10.dtd">
<svg version="1.0" xmlns="http://www.w3.org/2000/svg"
 width="512.000000pt" height="512.000000pt" viewBox="0 0 512.000000 512.000000"
 preserveAspectRatio="xMidYMid meet">
<metadata>
Created by potrace 1.16, written by Peter Selinger 2001-2019
</metadata>
<g transform="translate(0.000000,512.000000) scale(0.100000,-0.100000)"
fill="rgb(109, 112, 128)" stroke="none">
<path d="M17 5102 c-16 -17 -17 -129 -17 -1410 0 -1625 -19 -1432 140 -1432
l99 0 6 -32 c3 -18 19 -130 35 -248 32 -238 37 -250 107 -250 19 0 457 58 975
130 517 71 946 130 952 130 6 0 57 -102 113 -227 l102 -228 4 -205 c5 -245 19
-307 121 -564 36 -90 66 -169 66 -175 0 -7 -30 -11 -89 -11 -75 0 -93 -3 -122
-23 -63 -42 -69 -67 -69 -298 0 -194 1 -208 21 -233 l20 -26 599 0 599 0 20
26 c27 34 27 64 0 98 l-20 26 -540 0 -539 0 0 135 0 135 855 0 855 0 0 -135 0
-135 -194 0 c-190 0 -195 -1 -210 -22 -22 -31 -20 -84 4 -108 19 -19 33 -20
268 -20 240 0 250 1 268 21 17 19 19 39 19 238 0 189 -2 220 -18 249 -32 59
-67 72 -194 72 -98 0 -112 2 -117 18 -2 9 -7 72 -11 139 l-7 122 37 93 c184
463 304 902 340 1251 l6 57 290 0 c276 0 290 1 309 20 20 20 20 33 20 1413 0
1338 -1 1395 -18 1410 -17 16 -208 17 -2544 17 -2433 0 -2526 -1 -2541 -18z
m4953 -1407 l0 -1275 -679 0 -679 0 -16 65 c-9 35 -16 69 -16 75 0 7 140 10
438 10 l439 0 20 22 c11 13 25 50 31 87 20 115 88 181 205 199 107 17 97 -66
97 814 0 875 8 799 -90 812 -122 16 -200 94 -216 216 -4 30 -15 61 -25 71 -18
18 -83 19 -1919 19 -1836 0 -1901 -1 -1919 -19 -10 -10 -21 -41 -25 -71 -16
-122 -94 -200 -216 -216 -98 -13 -90 63 -90 -812 0 -880 -10 -797 97 -814 117
-18 185 -84 205 -199 6 -37 20 -74 31 -86 l20 -23 1093 0 1093 0 -34 -72 -33
-73 -777 -5 -777 -5 -19 -24 c-26 -32 -24 -77 6 -106 l24 -25 736 0 c404 0
735 -2 735 -5 0 -2 -5 -14 -10 -27 -11 -22 -43 -27 -1126 -177 -613 -84 -1116
-152 -1118 -150 -2 2 -15 83 -28 179 l-24 175 285 3 c276 2 286 3 308 24 33
31 32 90 -3 117 -26 20 -37 21 -435 21 l-409 0 0 1275 0 1275 2410 0 2410 0 0
-1275z m-603 906 c36 -108 126 -198 234 -234 l44 -15 3 -659 2 -658 -48 -17
c-111 -40 -192 -120 -233 -230 l-22 -58 -398 0 -399 0 0 253 c0 282 -6 320
-63 403 -18 26 -55 63 -83 82 -36 25 -48 40 -47 56 22 196 12 313 -39 452 -72
200 -245 381 -443 463 -184 77 -403 81 -600 12 -196 -69 -390 -258 -465 -452
-50 -130 -36 -189 45 -189 44 0 70 22 84 72 46 155 186 318 332 387 110 53
184 71 289 71 178 0 320 -60 451 -190 70 -69 94 -101 128 -170 54 -111 75
-208 68 -325 -3 -49 -8 -97 -12 -106 -4 -11 -22 -18 -49 -21 -64 -8 -148 -50
-197 -100 -62 -63 -91 -134 -98 -237 l-6 -86 -85 -29 c-75 -26 -98 -30 -200
-30 -98 0 -127 5 -196 27 -214 71 -382 252 -438 472 -17 67 -43 95 -88 95 -35
0 -78 -39 -78 -72 0 -43 40 -169 77 -241 107 -213 289 -358 534 -424 120 -32
313 -23 462 23 15 5 17 -4 17 -95 l0 -101 -1039 0 -1038 0 -22 58 c-41 110
-122 190 -233 230 l-48 17 2 658 3 659 44 15 c58 19 107 52 153 99 37 39 88
130 88 156 0 8 3 18 7 21 3 4 812 6 1796 5 l1789 -3 15 -44z m-1065 -1261 c19
-13 46 -39 59 -58 24 -35 24 -38 30 -356 l5 -321 82 -315 c46 -173 87 -328 94
-343 30 -77 148 -54 148 28 0 18 -13 84 -30 146 -16 63 -30 120 -30 127 0 9
75 12 340 12 l341 0 -6 -52 c-38 -322 -123 -640 -297 -1108 l-80 -215 8 -153
9 -152 -544 2 -544 3 -13 53 c-8 29 -39 114 -70 190 -88 217 -105 290 -111
474 -11 346 73 708 255 1092 l57 121 5 365 c5 396 4 385 62 441 58 55 165 64
230 19z"/>
<path d="M2518 4244 c-30 -16 -36 -33 -40 -107 -3 -47 -5 -50 -41 -62 -134
-46 -196 -203 -131 -333 45 -91 125 -132 256 -132 60 0 72 -3 93 -25 33 -32
33 -74 -1 -106 -22 -21 -35 -24 -101 -24 -68 0 -77 2 -92 24 -9 13 -29 37 -44
53 -23 26 -33 29 -60 24 -121 -23 -62 -211 79 -248 l44 -12 0 -57 c0 -75 25
-109 80 -109 56 0 80 34 80 111 0 46 3 59 15 59 26 0 88 36 122 72 88 92 85
236 -7 328 -53 53 -99 70 -194 70 -70 0 -119 17 -130 45 -12 33 -5 66 19 90
20 21 34 25 85 25 64 0 78 -8 123 -74 38 -55 137 -20 137 48 0 64 -79 160
-140 173 -29 5 -30 7 -30 63 0 73 -5 87 -41 105 -35 18 -47 18 -81 -1z"/>
<path d="M1035 3917 c-61 -16 -139 -99 -155 -166 -37 -154 69 -291 225 -291
178 0 287 174 211 336 -28 59 -75 100 -142 120 -54 16 -82 16 -139 1z m104
-162 c47 -24 55 -74 19 -112 -29 -31 -72 -30 -103 2 -33 32 -31 60 4 96 34 33
41 35 80 14z"/>
<path d="M3942 3915 c-98 -31 -162 -119 -162 -225 1 -132 101 -230 235 -230
161 0 267 145 221 303 -13 44 -26 65 -66 100 -70 63 -141 80 -228 52z m119
-174 c35 -36 37 -64 4 -96 -30 -31 -71 -32 -102 -3 -38 36 -28 89 22 116 31
17 44 14 76 -17z"/>
<path d="M2775 345 c-50 -49 -15 -135 55 -135 41 0 80 39 80 80 0 41 -39 80
-80 80 -19 0 -40 -9 -55 -25z"/>
</g>
</svg>
